<svg width="1119" height="40" viewBox="0 0 1119 40" fill="none" xmlns="http://www.w3.org/2000/svg">
<g clip-path="url(#clip0_724_8132)">
<path d="M4.77008 4.235C5.03008 3.001 6.26008 2 7.51308 2H14.3251L8.66008 28.823H1.84808C0.59408 28.823 -0.21192 27.823 0.04908 26.588L4.77008 4.235ZM27.4771 4.235C27.7381 3.001 28.9671 2 30.2201 2H37.0321L31.3671 28.823H24.5551C23.3011 28.823 22.4951 27.823 22.7561 26.588L27.4771 4.235ZM72.8921 4.235C73.1521 3.001 74.3801 2 75.6351 2H82.4471L76.7821 28.823H69.9691C68.7151 28.823 67.9101 27.823 68.1711 26.588L72.8921 4.235ZM39.3031 2H46.1151C47.3691 2 48.1751 3 47.9141 4.235L43.1931 26.588C42.9331 27.823 41.7041 28.823 40.4501 28.823H33.6381L39.3031 2ZM84.7181 2H91.5301C92.7841 2 93.5901 3 93.3291 4.235L88.6071 26.588C88.3471 27.823 87.1191 28.823 85.8651 28.823H79.0521L84.7181 2ZM50.1851 4.235C50.4451 3.001 51.6731 2 52.9271 2H59.7401L54.0741 28.823H47.2621C46.0081 28.823 45.2021 27.823 45.4641 26.588L50.1841 4.235H50.1851ZM62.0101 2H68.8231C70.0771 2 70.8821 3 70.6211 4.235L63.5401 37.765C63.2781 38.999 62.0501 40 60.7961 40H53.9831L62.0101 2ZM12.8191 19.882H21.9021L20.4861 26.588C20.2251 27.823 18.9961 28.823 17.7431 28.823H10.9301L12.8181 19.883L12.8191 19.882ZM44.5201 31.059H53.6021L51.7141 40H44.9021C43.6471 40 42.8421 39 43.1031 37.765L44.5201 31.059ZM69.1741 33.138L68.0241 38.584C67.9741 38.818 67.8961 38.882 67.6581 38.882H67.1351C66.8971 38.882 66.8451 38.818 66.8951 38.584L68.0451 33.138C68.0951 32.905 68.1731 32.84 68.4111 32.84H68.9341C69.1721 32.84 69.2241 32.905 69.1741 33.138ZM70.6861 36.812H70.5791C70.4651 36.812 70.4251 36.844 70.4021 36.957L70.0581 38.584C70.0081 38.818 69.9291 38.882 69.6921 38.882H69.1681C68.9311 38.882 68.8791 38.818 68.9281 38.584L70.0781 33.138C70.1281 32.905 70.2081 32.84 70.4451 32.84H71.5251C72.7691 32.84 73.2401 33.283 73.0101 34.37L72.8181 35.281C72.5881 36.369 71.9301 36.812 70.6861 36.812ZM71.0021 34.113L70.7021 35.539C70.6771 35.652 70.7031 35.684 70.8181 35.684H70.9901C71.3901 35.684 71.6051 35.523 71.6921 35.112L71.8121 34.54C71.8991 34.13 71.7531 33.968 71.3521 33.968H71.1801C71.0661 33.968 71.0261 34 71.0021 34.113ZM74.7401 34.991L75.5901 35.926C76.0361 36.409 76.0981 36.699 75.9841 37.239L75.9541 37.384C75.7391 38.399 75.2271 38.963 74.0401 38.963C72.8541 38.963 72.5611 38.488 72.8351 37.19L72.8691 37.03C72.9191 36.796 72.9981 36.731 73.2351 36.731H73.7911C74.0291 36.731 74.0811 36.796 74.0311 37.029L73.9561 37.384C73.8881 37.706 73.9921 37.835 74.2781 37.835C74.5651 37.835 74.7211 37.715 74.7831 37.425L74.8151 37.271C74.8631 37.045 74.8371 36.933 74.5911 36.667L73.7911 35.805C73.3431 35.33 73.2861 35.055 73.4001 34.515L73.4371 34.339C73.6521 33.324 74.1641 32.759 75.3501 32.759C76.5371 32.759 76.8301 33.235 76.5561 34.532L76.5221 34.693C76.4721 34.927 76.3931 34.991 76.1561 34.991H75.5991C75.3621 34.991 75.3101 34.927 75.3591 34.693L75.4341 34.339C75.5021 34.016 75.3991 33.888 75.1121 33.888C74.8261 33.888 74.6691 34.008 74.6081 34.298L74.5791 34.435C74.5291 34.669 74.5551 34.782 74.7401 34.991ZM79.5321 33.138C79.5821 32.905 79.6601 32.84 79.8981 32.84H80.4211C80.6591 32.84 80.7111 32.905 80.6611 33.138L79.8051 37.191C79.5311 38.488 79.0381 38.963 77.8511 38.963C76.6651 38.963 76.3721 38.488 76.6461 37.19L77.5021 33.138C77.5521 32.905 77.6311 32.84 77.8681 32.84H78.3921C78.6291 32.84 78.6811 32.905 78.6321 33.138L77.7351 37.384C77.6671 37.706 77.7791 37.835 78.0901 37.835C78.3921 37.835 78.5671 37.706 78.6351 37.384L79.5321 33.138ZM82.9381 36.417C82.9411 36.482 82.9621 36.497 83.0031 36.497C83.0431 36.497 83.0721 36.482 83.1021 36.417L84.5161 33.05C84.5851 32.88 84.6671 32.84 84.8721 32.84H85.6661C85.9031 32.84 85.9551 32.905 85.9061 33.138L84.7561 38.584C84.7061 38.818 84.6261 38.882 84.3891 38.882H84.0131C83.7761 38.882 83.7231 38.818 83.7731 38.584L84.3251 35.974C84.3401 35.902 84.3271 35.885 84.2781 35.885C84.2451 35.885 84.2081 35.902 84.1881 35.958L83.0461 38.617C82.9641 38.81 82.8591 38.882 82.6221 38.882H82.4001C82.1541 38.882 82.0801 38.81 82.0801 38.617L82.0521 35.957C82.0471 35.901 82.0341 35.885 81.9931 35.885C81.9441 35.885 81.9241 35.902 81.9091 35.974L81.3581 38.584C81.3081 38.818 81.2301 38.882 80.9921 38.882H80.6161C80.3781 38.882 80.3261 38.818 80.3761 38.584L81.5261 33.138C81.5761 32.905 81.6551 32.84 81.8921 32.84H82.5721C82.8581 32.84 82.9501 32.905 82.9481 33.187L82.9371 36.417H82.9381ZM100 2C100 3.105 99.1101 4 98.0131 4C97.7513 3.99921 97.4922 3.94685 97.2506 3.8459C97.009 3.74496 96.7897 3.5974 96.6052 3.41167C96.4207 3.22594 96.2746 3.00567 96.1752 2.76345C96.0758 2.52123 96.0252 2.26181 96.0261 2C96.0261 0.895 96.9161 0 98.0131 0C99.1101 0 100 0.895 100 2Z" fill="#313131" fill-opacity="0.8"/>
</g>
<g clip-path="url(#clip1_724_8132)">
<path fill-rule="evenodd" clip-rule="evenodd" d="M180.015 2.5V40H170V2.5H180.015Z" fill="#313131" fill-opacity="0.8"/>
<path fill-rule="evenodd" clip-rule="evenodd" d="M185.021 2.5H206.303C213.217 2.5 218.821 8.09644 218.821 15C218.821 21.9036 213.217 27.5 206.303 27.5H195.036V40H185.021V2.5ZM195.036 17.5H206.303C207.686 17.5 208.807 16.3807 208.807 15C208.807 13.6193 207.686 12.5 206.303 12.5H195.036V17.5Z" fill="#313131" fill-opacity="0.8"/>
<path fill-rule="evenodd" clip-rule="evenodd" d="M256.378 2.5V21.875C256.378 26.3623 260.021 30 264.515 30C269.009 30 272.652 26.3623 272.652 21.875V2.5H282.667V21.875C282.667 31.8852 274.54 40 264.515 40C254.49 40 246.363 31.8852 246.363 21.875V2.5H256.378Z" fill="#313131" fill-opacity="0.8"/>
<path fill-rule="evenodd" clip-rule="evenodd" d="M222.577 20C222.577 10.335 230.424 2.5 240.103 2.5H242.607V12.5H240.103C235.955 12.5 232.592 15.8579 232.592 20V21.25C232.592 31.6053 224.185 40 213.814 40H212.562V30H213.814C218.654 30 222.577 26.0825 222.577 21.25V20Z" fill="#313131" fill-opacity="0.8"/>
<path d="M339 3.75C339 5.82107 337.319 7.5 335.244 7.5C333.17 7.5 331.489 5.82107 331.489 3.75C331.489 1.67893 333.17 0 335.244 0C337.319 0 339 1.67893 339 3.75Z" fill="#313131" fill-opacity="0.8"/>
<path d="M293.42 40L298.199 20.0181L301.752 32.0393C303.87 39.2091 314.041 39.2091 316.16 32.0393L319.712 20.0181L324.491 40H334.787L327.273 8.5795C325.486 1.10745 314.941 0.830788 312.763 8.19892L308.956 21.0833L305.148 8.19893C302.971 0.830831 292.425 1.10741 290.638 8.57949L283.124 40H293.42Z" fill="#313131" fill-opacity="0.8"/>
</g>
<g clip-path="url(#clip2_724_8132)">
<path d="M429 40C440.046 40 449 31.046 449 20V6C449 4.4087 448.368 2.88258 447.243 1.75736C446.118 0.632141 444.592 0 443 0L430 0V8.774C430 10.776 430.122 12.85 431.172 14.554C431.924 15.7752 432.93 16.8204 434.121 17.6188C435.312 18.4171 436.661 18.9499 438.076 19.181L438.459 19.243C438.617 19.297 438.754 19.399 438.851 19.5347C438.948 19.6704 439.001 19.8331 439.001 20C439.001 20.1669 438.948 20.3296 438.851 20.4653C438.754 20.601 438.617 20.703 438.459 20.757L438.076 20.819C436.009 21.1568 434.099 22.1356 432.618 23.6171C431.136 25.0987 430.157 27.0082 429.819 29.076L429.757 29.459C429.703 29.6169 429.601 29.754 429.466 29.851C429.33 29.9481 429.167 30.0003 429 30.0003C428.834 30.0003 428.671 29.9481 428.535 29.851C428.399 29.754 428.297 29.6169 428.243 29.459L428.181 29.076C427.95 27.6607 427.417 26.3118 426.619 25.1205C425.821 23.9293 424.776 22.9237 423.554 22.172C421.85 21.122 419.776 21 417.774 21H409.024C409.547 31.581 418.29 40 429 40Z" fill="#313131" fill-opacity="0.8"/>
<path d="M409 19H417.774C419.776 19 421.85 18.878 423.554 17.828C424.886 17.0073 426.007 15.886 426.828 14.554C427.878 12.85 428 10.776 428 8.774V0H415C413.409 0 411.883 0.632141 410.757 1.75736C409.632 2.88258 409 4.4087 409 6V19ZM455.455 2C455.455 2.53043 455.244 3.03914 454.869 3.41421C454.494 3.78929 453.985 4 453.455 4C452.925 4 452.416 3.78929 452.041 3.41421C451.666 3.03914 451.455 2.53043 451.455 2C451.455 1.46957 451.666 0.960859 452.041 0.585786C452.416 0.210714 452.925 0 453.455 0C453.985 0 454.494 0.210714 454.869 0.585786C455.244 0.960859 455.455 1.46957 455.455 2ZM620.711 12.104C626.302 12.104 629 16.009 629 20.532V29.027H623.149V21.54C623.149 19.49 622.401 17.798 620.256 17.798C618.111 17.798 617.396 19.49 617.396 21.54V29.026H611.545V21.54C611.545 19.49 610.83 17.798 608.684 17.798C606.539 17.798 605.791 19.49 605.791 21.54V29.026H599.941V20.531C599.941 16.008 602.638 12.103 608.229 12.103C611.285 12.103 613.495 13.307 614.503 15.292C615.575 13.307 617.916 12.102 620.711 12.102V12.104ZM589.427 23.82C591.312 23.82 592.125 22.095 592.125 20.044V12.754H597.975V20.76C597.975 25.544 595.18 29.515 589.427 29.515C583.673 29.515 580.878 25.545 580.878 20.76V12.754H586.729V20.044C586.729 22.094 587.541 23.82 589.427 23.82ZM572.275 29.547C568.602 29.547 566.229 28.278 564.831 25.805L569.057 23.429C569.642 24.47 570.519 24.991 571.982 24.991C573.185 24.991 573.737 24.568 573.737 24.047C573.737 22.062 565.156 24.08 565.156 17.767C565.156 14.707 567.756 12.234 572.177 12.234C576.045 12.234 578.158 14.121 579.101 15.944L574.875 18.352C574.518 17.376 573.412 16.79 572.307 16.79C571.462 16.79 571.007 17.148 571.007 17.636C571.007 19.654 579.588 17.799 579.588 23.917C579.588 27.334 576.24 29.547 572.275 29.547ZM551.833 36.512H545.982V20.858C545.982 15.878 549.72 12.266 554.921 12.266C559.992 12.266 563.86 16.139 563.86 20.858C563.86 26.065 560.414 29.515 555.246 29.515C554.043 29.515 552.841 29.157 551.833 28.603V36.512ZM554.921 24.015C556.774 24.015 558.009 22.583 558.009 20.89C558.009 19.166 556.774 17.766 554.921 17.766C553.068 17.766 551.833 19.166 551.833 20.891C551.833 22.583 553.068 24.015 554.921 24.015ZM540.121 11.03C538.203 11.03 536.611 9.435 536.611 7.515C536.611 5.595 538.203 4 540.121 4C542.039 4 543.632 5.595 543.632 7.515C543.632 9.435 542.039 11.03 540.121 11.03ZM537.196 12.754H543.047V29.027H537.196V12.754ZM525.97 29.515C520.899 29.515 517.031 25.61 517.031 20.858C517.031 16.139 520.899 12.234 525.97 12.234C531.041 12.234 534.909 16.139 534.909 20.858C534.909 25.61 531.041 29.515 525.97 29.515ZM525.97 24.015C527.823 24.015 529.058 22.583 529.058 20.89C529.058 19.166 527.823 17.734 525.97 17.734C524.117 17.734 522.882 19.166 522.882 20.89C522.882 22.583 524.117 24.015 525.97 24.015ZM505.983 37C501.953 37 499.027 35.21 497.532 32.02L502.375 29.417C502.895 30.524 503.87 31.663 505.885 31.663C507.999 31.663 509.396 30.328 509.559 27.985C508.779 28.669 507.543 29.189 505.691 29.189C501.172 29.189 497.531 25.707 497.531 20.825C497.531 16.107 501.4 12.266 506.471 12.266C511.672 12.266 515.41 15.879 515.41 20.858V27.302C515.41 33.16 511.346 37 505.983 37ZM506.373 23.69C508.128 23.69 509.461 22.485 509.461 20.695C509.461 18.938 508.129 17.766 506.373 17.766C504.65 17.766 503.285 18.938 503.285 20.696C503.285 22.486 504.65 23.689 506.373 23.689V23.69ZM487.607 29.515C482.536 29.515 478.667 25.61 478.667 20.858C478.667 16.139 482.536 12.234 487.607 12.234C492.677 12.234 496.546 16.139 496.546 20.858C496.546 25.61 492.678 29.515 487.607 29.515ZM487.607 24.015C489.46 24.015 490.695 22.583 490.695 20.89C490.695 19.166 489.46 17.734 487.607 17.734C485.754 17.734 484.519 19.166 484.519 20.89C484.519 22.583 485.754 24.015 487.607 24.015ZM468.013 7.06V23.494H477.7V29.027H467.2C463.495 29.027 462 27.074 462 23.982V7.06H468.013Z" fill="#313131" fill-opacity="0.8"/>
</g>
<g clip-path="url(#clip3_724_8132)">
<path d="M749.203 20.282C749.238 19.6158 749.238 18.9482 749.203 18.282H711.254C711.246 18.448 711.239 18.615 711.235 18.782H703.285L703.281 19.032H699V19.532H703.28L703.286 19.782H711.235C711.239 19.95 711.245 20.116 711.255 20.282H722.15C722.109 19.9503 722.088 19.6163 722.088 19.282H738.088C738.088 19.621 738.068 19.955 738.026 20.282H749.203ZM749.124 17.282H737.837C737.749 16.9417 737.639 16.6077 737.507 16.282H722.672C722.541 16.606 722.43 16.939 722.342 17.282H711.332C711.35 17.115 711.37 16.948 711.392 16.782H703.442L703.476 16.538H699V16.038H703.555L703.601 15.782H711.551C711.581 15.615 711.615 15.448 711.651 15.282H748.807C748.947 15.937 749.054 16.604 749.124 17.282ZM748.564 14.282H736.334C736.046 13.922 735.727 13.5874 735.381 13.282H724.797C724.452 13.588 724.132 13.922 723.844 14.282H711.894C711.939 14.115 711.987 13.948 712.037 13.782H704.087L704.175 13.501H699V13H704.342L704.42 12.781H712.37C712.43 12.613 712.494 12.447 712.56 12.281H747.897C748.155 12.931 748.378 13.6 748.564 14.282ZM747.467 11.282H712.99C713.068 11.114 713.148 10.948 713.231 10.782H705.282L705.423 10.506H699V10.006H705.694L705.821 9.782H713.771C713.868 9.614 713.968 9.447 714.07 9.282H746.387C746.785 9.924 747.147 10.592 747.467 11.282ZM711.332 21.282H749.125C749.054 21.96 748.947 22.628 748.807 23.282H737.019C737.204 22.962 737.368 22.628 737.508 22.282H722.67C722.81 22.628 722.973 22.962 723.158 23.282H711.65C711.614 23.1158 711.581 22.9491 711.55 22.782H703.601C703.585 22.6941 703.569 22.6061 703.554 22.518H699V22.018H703.475C703.464 21.9394 703.453 21.8607 703.442 21.782H711.392C711.37 21.6156 711.35 21.4489 711.332 21.282ZM711.893 24.282H748.563C748.378 24.965 748.155 25.632 747.897 26.282H733.965C734.472 26.0007 734.946 25.6655 735.381 25.282H724.797C725.232 25.6655 725.706 26.0007 726.213 26.282H712.56C712.494 26.1162 712.431 25.9495 712.37 25.782H704.42L704.334 25.541H699V25.041H704.168C704.141 24.9549 704.114 24.8685 704.088 24.782H712.037C711.987 24.616 711.939 24.45 711.893 24.282ZM712.99 27.282H747.467C747.147 27.9697 746.787 28.6375 746.387 29.282H714.07C713.967 29.1169 713.867 28.9502 713.77 28.782H705.821C705.771 28.696 705.722 28.61 705.674 28.523H699V28.023H705.405L705.282 27.783H713.232C713.149 27.6175 713.068 27.4508 712.99 27.283V27.282ZM715.92 31.782C716.067 31.952 716.218 32.118 716.372 32.282H744.085C744.675 31.6531 745.222 30.9849 745.722 30.282H714.735C714.855 30.451 714.977 30.618 715.103 30.782H707.153L707.351 31.037H699V31.537H707.76C707.829 31.62 707.899 31.701 707.97 31.782H715.92ZM719.237 34.782C719.48 34.955 719.727 35.122 719.977 35.282H740.48C741.4 34.6909 742.268 34.0218 743.074 33.282H717.384C717.569 33.452 717.758 33.619 717.95 33.782H710C710.108 33.874 710.217 33.964 710.327 34.052H699V34.552H710.972C711.076 34.63 711.182 34.707 711.288 34.782H719.238H719.237ZM726.254 37.866C727.536 38.139 728.865 38.282 730.228 38.282C733.282 38.282 736.167 37.562 738.723 36.282H721.733C722.089 36.46 722.45 36.627 722.817 36.782H714.867C715.009 36.842 715.152 36.901 715.295 36.958H699V37.458H716.725C718.482 37.994 720.347 38.282 722.279 38.282C723.642 38.282 724.972 38.139 726.254 37.866ZM714.735 8.282H745.722C745.222 7.57912 744.675 6.91092 744.085 6.282H716.372C716.218 6.446 716.067 6.612 715.919 6.782H707.97L707.794 6.988H699V7.488H707.382C707.305 7.585 707.229 7.683 707.154 7.782H715.103C714.977 7.947 714.855 8.114 714.735 8.282ZM717.383 5.282H743.073C742.268 4.54225 741.4 3.87312 740.48 3.282H719.977C719.727 3.443 719.48 3.61 719.237 3.782H711.288C711.178 3.861 711.068 3.94 710.96 4.021H699V4.521H710.316C710.21 4.607 710.105 4.694 710.001 4.782H717.95C717.758 4.945 717.569 5.112 717.383 5.282ZM721.734 2.282H738.724C736.087 0.962435 733.178 0.27755 730.229 0.282C728.865 0.282 727.536 0.426 726.254 0.699C724.947 0.421201 723.615 0.281434 722.279 0.282C720.145 0.282 718.094 0.634 716.179 1.282H699V1.782H722.817C722.451 1.93722 722.09 2.10397 721.734 2.282ZM810.248 0C810.905 0 811.421 0.164 811.796 0.492C812.187 0.805 812.382 1.242 812.382 1.806C812.382 2.369 812.187 2.814 811.796 3.142C811.421 3.455 810.905 3.612 810.248 3.612C809.592 3.612 809.068 3.455 808.677 3.142C808.302 2.814 808.114 2.369 808.114 1.806C808.114 1.243 808.302 0.806 808.677 0.492C809.068 0.164 809.592 0 810.248 0ZM812.077 5.792V15.993C812.077 16.65 812.187 17.096 812.406 17.33C812.64 17.565 813.031 17.682 813.578 17.682V18.174C813.141 18.1526 812.703 18.137 812.265 18.127C811.664 18.0955 811.061 18.0799 810.459 18.08C809.85 18.08 809.232 18.096 808.607 18.127C808.138 18.1373 807.669 18.153 807.2 18.174V17.682C807.747 17.682 808.13 17.565 808.349 17.33C808.583 17.096 808.701 16.65 808.701 15.993V8.606C808.701 7.903 808.591 7.386 808.372 7.059C808.169 6.715 807.778 6.543 807.2 6.543V6.05C807.7 6.097 808.185 6.12 808.654 6.12C809.31 6.12 809.92 6.097 810.483 6.05C811.061 5.988 811.593 5.902 812.077 5.792Z" fill="#313131" fill-opacity="0.8"/>
<path fill-rule="evenodd" clip-rule="evenodd" d="M818.677 7.94403V5.79203C818.193 5.90203 817.661 5.98803 817.083 6.05003C816.504 6.09703 815.894 6.12003 815.253 6.12003C814.784 6.12003 814.3 6.09703 813.799 6.05003V6.54303C814.362 6.54303 814.753 6.71503 814.972 7.05903C815.191 7.38703 815.3 7.90303 815.3 8.60603V20.332C815.3 20.957 815.191 21.379 814.972 21.598C814.769 21.817 814.409 21.926 813.893 21.926V22.419L815.136 22.349C815.706 22.3331 816.277 22.3251 816.848 22.325C817.645 22.325 818.396 22.333 819.099 22.348C819.818 22.38 820.381 22.403 820.788 22.418V21.926C820.131 21.926 819.615 21.801 819.24 21.551C818.865 21.317 818.677 20.832 818.677 20.097V17.747C818.883 17.919 819.125 18.061 819.404 18.174C819.904 18.394 820.459 18.503 821.069 18.503C821.898 18.503 822.64 18.354 823.297 18.057C823.965 17.7633 824.552 17.3129 825.009 16.744C825.493 16.15 825.861 15.423 826.111 14.563C826.377 13.703 826.51 12.703 826.51 11.561C826.51 10.264 826.322 9.18503 825.947 8.32503C825.572 7.44903 825.071 6.80103 824.446 6.37903C823.821 5.94127 823.075 5.71139 822.312 5.72203C821.405 5.72203 820.608 5.95603 819.92 6.42503C819.379 6.79003 818.965 7.29603 818.677 7.94503V7.94403ZM818.677 8.75003V17.251C818.807 17.405 818.964 17.533 819.146 17.635C819.443 17.791 819.779 17.869 820.155 17.869C820.858 17.869 821.413 17.635 821.82 17.166C822.226 16.681 822.515 16.009 822.687 15.149C822.875 14.274 822.969 13.234 822.969 12.03C822.969 10.686 822.883 9.63003 822.711 8.86403C822.539 8.09803 822.304 7.55103 822.007 7.22303C821.71 6.89403 821.351 6.73003 820.928 6.73003C820.366 6.73003 819.85 6.95003 819.381 7.38703C819.028 7.72703 818.793 8.18203 818.677 8.75003Z" fill="#313131" fill-opacity="0.8"/>
<path d="M831.894 5.72203C832.551 5.72203 833.121 5.80803 833.606 5.98003C834.106 6.13603 834.466 6.29303 834.685 6.44903C835.216 6.80903 835.545 6.57403 835.67 5.74503H836.162C836.131 6.18303 836.107 6.72303 836.092 7.36303C836.076 7.98903 836.068 8.82503 836.068 9.87303H835.576C835.495 9.28669 835.346 8.71198 835.13 8.16103C834.931 7.62633 834.6 7.15037 834.169 6.77703C833.762 6.41703 833.231 6.23703 832.574 6.23703C832.121 6.23703 831.738 6.37103 831.425 6.63703C831.112 6.88703 830.956 7.25403 830.956 7.73903C830.956 8.20803 831.097 8.62203 831.378 8.98203C831.66 9.32603 832.019 9.66203 832.457 9.99003C832.91 10.303 833.379 10.639 833.864 10.998C834.38 11.389 834.849 11.78 835.271 12.171C835.675 12.5247 836.016 12.9451 836.279 13.414C836.53 13.867 836.655 14.406 836.655 15.032C836.655 15.735 836.451 16.352 836.045 16.884C835.638 17.4 835.099 17.799 834.427 18.08C833.77 18.362 833.035 18.503 832.223 18.503C831.796 18.5079 831.371 18.4605 830.956 18.362C830.63 18.281 830.316 18.1629 830.018 18.01C829.815 17.916 829.619 17.83 829.432 17.752C829.272 17.6643 829.107 17.5861 828.939 17.518C828.783 17.471 828.642 17.525 828.517 17.682C828.408 17.838 828.322 18.057 828.259 18.338H827.767C827.798 17.838 827.822 17.228 827.837 16.509C827.853 15.79 827.861 14.836 827.861 13.649H828.353C828.447 14.493 828.619 15.243 828.869 15.899C829.119 16.541 829.455 17.049 829.877 17.424C830.315 17.784 830.862 17.964 831.519 17.964C831.785 17.964 832.043 17.909 832.293 17.799C832.543 17.689 832.746 17.509 832.903 17.259C833.075 17.009 833.161 16.689 833.161 16.299C833.161 15.61 832.934 15.039 832.48 14.586C832.043 14.133 831.48 13.64 830.792 13.109C830.292 12.702 829.815 12.304 829.362 11.913C828.942 11.5287 828.578 11.0866 828.283 10.6C827.997 10.1005 827.851 9.53333 827.861 8.95803C827.861 8.25503 828.048 7.66103 828.423 7.17603C828.805 6.68597 829.317 6.31232 829.901 6.09703C830.535 5.8453 831.211 5.71798 831.894 5.72203ZM861.005 5.98003C860.598 5.80803 860.067 5.72203 859.41 5.72203C858.674 5.71456 857.949 5.89199 857.3 6.23803C856.659 6.56603 856.151 7.12103 855.775 7.90303V5.79303C855.291 5.90203 854.759 5.98803 854.181 6.05003C853.618 6.09703 853.008 6.12003 852.352 6.12003C851.883 6.12003 851.398 6.09703 850.898 6.05003V6.54303C851.476 6.54303 851.867 6.71503 852.07 7.05903C852.289 7.38703 852.398 7.90303 852.398 8.60603V15.993C852.398 16.65 852.281 17.096 852.047 17.33C851.828 17.565 851.445 17.682 850.898 17.682V18.174C851.366 18.153 851.835 18.1374 852.305 18.127C852.914 18.0962 853.524 18.0805 854.134 18.08C854.681 18.08 855.213 18.096 855.728 18.127C856.26 18.143 856.651 18.159 856.901 18.174V17.682C856.495 17.682 856.205 17.565 856.033 17.33C855.861 17.096 855.775 16.65 855.775 15.993V9.47403C855.775 8.95803 855.877 8.49703 856.08 8.09003C856.299 7.66803 856.58 7.34003 856.924 7.10603C857.254 6.87584 857.647 6.75294 858.05 6.75403C858.41 6.75403 858.675 6.84003 858.847 7.01203C859.035 7.16803 859.16 7.39503 859.223 7.69203C859.285 7.97303 859.316 8.30903 859.316 8.70003V15.993C859.316 16.65 859.23 17.096 859.058 17.33C858.902 17.565 858.613 17.682 858.191 17.682V18.174C858.472 18.159 858.886 18.143 859.434 18.127C860.543 18.0638 861.655 18.0638 862.764 18.127C863.342 18.143 863.772 18.159 864.053 18.174V17.682C863.553 17.682 863.201 17.565 862.998 17.33C862.795 17.096 862.693 16.65 862.693 15.993V9.57803L862.692 9.50503L862.688 9.26803C862.724 8.87604 862.828 8.49348 862.998 8.13803C863.217 7.71503 863.498 7.37903 863.842 7.12903C864.186 6.87903 864.562 6.75403 864.968 6.75403C865.374 6.75403 865.672 6.84003 865.859 7.01203C866.062 7.16803 866.195 7.39503 866.258 7.69203C866.336 7.97303 866.375 8.30903 866.375 8.70003V15.993C866.375 16.65 866.289 17.096 866.117 17.33C865.961 17.565 865.672 17.682 865.249 17.682V18.174C865.531 18.159 865.945 18.143 866.492 18.127C867.046 18.0956 867.601 18.0799 868.157 18.08C868.736 18.08 869.322 18.096 869.916 18.127C870.51 18.143 870.956 18.159 871.253 18.174V17.682C870.706 17.682 870.315 17.565 870.08 17.33C869.861 17.096 869.752 16.65 869.752 15.993V9.68503C869.752 8.90303 869.697 8.27803 869.588 7.80903C869.478 7.32403 869.299 6.93403 869.048 6.63703C868.798 6.35503 868.47 6.13703 868.063 5.98003C867.657 5.80803 867.125 5.72203 866.469 5.72203C865.672 5.72203 864.921 5.88603 864.218 6.21403C863.544 6.53603 862.998 7.15003 862.579 8.05603C862.564 7.97325 862.548 7.89088 862.529 7.80903C862.42 7.32403 862.24 6.93403 861.99 6.63703C861.74 6.35503 861.411 6.13703 861.005 5.98003ZM849.058 15.618V5.79203C848.573 5.90203 848.042 5.98803 847.463 6.05003C846.901 6.09703 846.291 6.12003 845.634 6.12003C845.165 6.12003 844.681 6.09703 844.18 6.05003V6.54303C844.759 6.54303 845.15 6.71503 845.353 7.05903C845.572 7.38703 845.681 7.90303 845.681 8.60603V14.75C845.681 15.266 845.572 15.735 845.353 16.157C845.167 16.5434 844.884 16.8749 844.532 17.119C844.204 17.3538 843.809 17.4771 843.406 17.471C843.016 17.471 842.719 17.392 842.515 17.236C842.304 17.0516 842.156 16.8057 842.093 16.533C842.026 16.1931 841.995 15.8473 841.999 15.501V5.79203C841.515 5.90203 840.983 5.98803 840.405 6.05003C839.842 6.09703 839.232 6.12003 838.576 6.12003C838.107 6.12003 837.622 6.09703 837.122 6.05003V6.54303C837.7 6.54303 838.091 6.71503 838.294 7.05903C838.513 7.38703 838.622 7.90303 838.622 8.60603V14.539C838.622 15.305 838.677 15.931 838.787 16.415C838.896 16.9 839.084 17.291 839.349 17.588C839.584 17.854 839.904 18.073 840.311 18.245C840.717 18.416 841.249 18.503 841.906 18.503C842.719 18.503 843.453 18.338 844.11 18.01C844.782 17.666 845.306 17.103 845.681 16.322V18.432C846.204 18.3031 846.738 18.2168 847.276 18.174C847.839 18.127 848.448 18.104 849.105 18.104C849.59 18.104 850.074 18.127 850.559 18.174V17.682C849.996 17.682 849.605 17.518 849.386 17.189C849.167 16.845 849.058 16.322 849.058 15.619V15.618Z" fill="#313131" fill-opacity="0.8"/>
<path fill-rule="evenodd" clip-rule="evenodd" d="M803.696 6.35494C802.836 5.93294 801.835 5.72194 800.694 5.72194C799.584 5.72194 798.591 5.93294 797.716 6.35494C796.856 6.77694 796.176 7.45694 795.676 8.39494C795.191 9.33294 794.948 10.5759 794.948 12.1239C794.948 13.6719 795.191 14.9139 795.675 15.8529C796.175 16.7749 796.855 17.4469 797.715 17.8689C798.591 18.2909 799.584 18.5029 800.694 18.5029C801.835 18.5029 802.836 18.2909 803.696 17.8689C804.555 17.4469 805.228 16.7749 805.712 15.8529C806.197 14.9149 806.439 13.6719 806.439 12.1239C806.439 10.5759 806.197 9.33394 805.712 8.39494C805.228 7.45694 804.555 6.77694 803.696 6.35494ZM799.123 7.59794C799.545 6.65994 800.069 6.19094 800.694 6.19094C801.335 6.19094 801.859 6.65994 802.265 7.59794C802.687 8.51994 802.898 10.0289 802.898 12.1239C802.898 14.2189 802.687 15.7279 802.265 16.6499C801.859 17.5719 801.335 18.0339 800.694 18.0339C800.069 18.0339 799.545 17.5719 799.123 16.6499C798.701 15.7279 798.49 14.2189 798.49 12.1239C798.49 10.0289 798.7 8.51994 799.123 7.59794ZM787.301 22.5829C786.331 22.5829 785.464 22.4969 784.698 22.3249C783.948 22.1689 783.354 21.9189 782.916 21.5749C782.494 21.2459 782.283 20.8399 782.283 20.3549C782.283 19.8699 782.501 19.4329 782.939 19.0419C783.377 18.6669 784.026 18.3699 784.886 18.1509L785.096 18.5259C784.828 18.7276 784.604 18.983 784.44 19.2759C784.315 19.5579 784.252 19.8469 784.252 20.1439C784.252 20.8009 784.549 21.3009 785.144 21.6439C785.754 22.0039 786.574 22.1839 787.606 22.1839C788.309 22.1839 788.935 22.0899 789.482 21.9029C790.045 21.7149 790.482 21.4329 790.795 21.0589C791.124 20.6829 791.288 20.2219 791.288 19.6749C791.288 19.2059 791.116 18.8069 790.772 18.4789C790.428 18.1659 789.74 18.0099 788.708 18.0099H787.254C786.614 18.0099 786.05 17.9399 785.566 17.7989C785.096 17.6589 784.729 17.4389 784.463 17.1419C784.198 16.8299 784.065 16.4389 784.065 15.9699C784.065 15.3129 784.323 14.7349 784.839 14.2339C785.243 13.8419 785.801 13.4689 786.513 13.1159C786.045 13.0577 785.585 12.9453 785.143 12.7809C784.44 12.5149 783.885 12.1079 783.479 11.5609C783.072 11.0139 782.869 10.3109 782.869 9.45094C782.869 8.59094 783.072 7.88694 783.479 7.33994C783.885 6.77694 784.44 6.36994 785.144 6.11994C785.847 5.85494 786.644 5.72194 787.535 5.72194C788.427 5.72194 789.224 5.85494 789.927 6.12094C790.391 6.28494 790.789 6.51794 791.124 6.81794C791.323 6.53094 791.565 6.27494 791.85 6.04994C792.382 5.64394 792.953 5.43994 793.562 5.43994C794.062 5.43994 794.438 5.58094 794.688 5.86294C794.954 6.12794 795.087 6.47994 795.087 6.91794C795.087 7.38694 794.961 7.73794 794.711 7.97294C794.461 8.19294 794.18 8.30194 793.867 8.30194C793.592 8.2983 793.326 8.19854 793.117 8.01994C792.897 7.83194 792.773 7.55094 792.742 7.17594C792.715 6.83994 792.809 6.42394 793.024 5.92594C792.568 6.11994 792.216 6.34094 791.968 6.58994C791.781 6.7702 791.618 6.9735 791.482 7.19494C791.52 7.24194 791.557 7.29094 791.592 7.33994C791.999 7.88694 792.202 8.58994 792.202 9.44994C792.202 10.3099 791.999 11.0139 791.592 11.5609C791.186 12.1079 790.631 12.5149 789.927 12.7809C789.224 13.0459 788.427 13.1789 787.535 13.1789C787.402 13.1791 787.268 13.1761 787.135 13.1699C786.924 13.3129 786.721 13.4649 786.527 13.6249C786.407 13.7192 786.31 13.8404 786.245 13.9788C786.18 14.1173 786.148 14.269 786.152 14.4219C786.152 14.9219 786.465 15.1719 787.09 15.1719H789.646C790.506 15.1719 791.272 15.2739 791.944 15.4769C792.632 15.6809 793.171 16.0169 793.562 16.4859C793.969 16.9389 794.172 17.5329 794.172 18.2679C794.172 19.0339 793.922 19.7449 793.422 20.4019C792.937 21.0589 792.187 21.5819 791.17 21.9729C790.154 22.3799 788.864 22.5829 787.301 22.5829ZM787.535 12.7569C787.958 12.7569 788.285 12.5229 788.52 12.0539C788.755 11.5689 788.872 10.7009 788.872 9.45094C788.872 8.19994 788.755 7.33994 788.52 6.87094C788.286 6.38594 787.958 6.14394 787.536 6.14394C787.129 6.14394 786.801 6.38594 786.551 6.87094C786.316 7.33994 786.199 8.19994 786.199 9.45094C786.199 10.7009 786.316 11.5689 786.551 12.0539C786.801 12.5229 787.129 12.7569 787.535 12.7569ZM779.247 6.35494C778.387 5.93294 777.387 5.72194 776.246 5.72194C775.136 5.72194 774.143 5.93294 773.268 6.35494C772.408 6.77694 771.728 7.45694 771.228 8.39494C770.743 9.33294 770.5 10.5759 770.5 12.1239C770.5 13.6719 770.743 14.9139 771.227 15.8529C771.727 16.7749 772.407 17.4469 773.267 17.8689C774.143 18.2909 775.136 18.5029 776.246 18.5029C777.387 18.5029 778.388 18.2909 779.247 17.8689C780.107 17.4469 780.779 16.7749 781.264 15.8529C781.749 14.9149 781.991 13.6719 781.991 12.1239C781.991 10.5759 781.749 9.33394 781.264 8.39494C780.78 7.45694 780.107 6.77694 779.247 6.35494ZM774.674 7.59794C775.097 6.65994 775.62 6.19094 776.246 6.19094C776.886 6.19094 777.41 6.65994 777.816 7.59794C778.239 8.51994 778.45 10.0289 778.45 12.1239C778.45 14.2189 778.239 15.7279 777.817 16.6499C777.41 17.5719 776.887 18.0339 776.246 18.0339C775.62 18.0339 775.096 17.5719 774.674 16.6499C774.252 15.7279 774.041 14.2189 774.041 12.1239C774.041 10.0289 774.252 8.51994 774.674 7.59794Z" fill="#313131" fill-opacity="0.8"/>
<path d="M764.184 1.57104V2.04104C763.653 2.05604 763.246 2.11804 762.965 2.22804C762.836 2.27159 762.72 2.3455 762.626 2.4435C762.532 2.5415 762.463 2.66072 762.425 2.79104C762.332 3.05604 762.285 3.47904 762.285 4.05704V15.97C762.285 16.454 762.316 16.814 762.379 17.049C762.457 17.283 762.598 17.439 762.801 17.518C763.02 17.596 763.341 17.635 763.762 17.635H764.912C765.442 17.635 765.943 17.51 766.412 17.26C766.882 17.01 767.303 16.658 767.678 16.204C768.073 15.6998 768.39 15.1384 768.617 14.539C768.867 13.899 769.054 13.187 769.179 12.405H769.719C769.672 12.937 769.649 13.625 769.649 14.469C769.649 14.829 769.656 15.352 769.672 16.04C769.688 16.728 769.734 17.44 769.812 18.174C768.914 18.1409 768.015 18.1253 767.116 18.127C766.116 18.112 765.224 18.104 764.442 18.104H762.942C762.332 18.104 761.675 18.112 760.972 18.127C760.268 18.127 759.557 18.135 758.838 18.151C758.118 18.151 757.438 18.159 756.798 18.174V17.705C757.298 17.674 757.673 17.611 757.923 17.518C758.173 17.424 758.337 17.236 758.416 16.955C758.509 16.673 758.556 16.251 758.556 15.688V4.05704C758.556 3.47804 758.509 3.05704 758.416 2.79104C758.385 2.66096 758.321 2.54092 758.231 2.44237C758.141 2.34382 758.027 2.27003 757.9 2.22804C757.65 2.11804 757.282 2.05604 756.798 2.04004V1.57104C758.032 1.61678 759.268 1.64012 760.503 1.64104C761.191 1.64104 761.863 1.63404 762.519 1.61804C763.192 1.60204 763.747 1.58704 764.184 1.57104Z" fill="#313131" fill-opacity="0.8"/>
<path fill-rule="evenodd" clip-rule="evenodd" d="M868.871 37.553C868.838 37.385 868.86 37.166 868.939 36.896L872.242 24.929C871.714 25.1458 871.166 25.3148 870.607 25.434C870.034 25.547 869.377 25.608 868.635 25.62L868.517 25.974C869.068 25.974 869.411 26.064 869.546 26.244C869.68 26.424 869.697 26.704 869.596 27.086L868.814 30.035C868.765 29.8927 868.681 29.7653 868.568 29.665C868.377 29.485 868.113 29.395 867.776 29.395C867.102 29.395 866.478 29.547 865.905 29.85C865.329 30.1649 864.81 30.5754 864.371 31.064C863.91 31.5591 863.519 32.1149 863.208 32.716C862.902 33.3009 862.659 33.9167 862.483 34.553C862.324 35.101 862.239 35.6681 862.23 36.239C862.23 36.778 862.315 37.222 862.483 37.57C862.652 37.907 862.882 38.16 863.174 38.328C863.466 38.486 863.792 38.564 864.152 38.564C864.702 38.564 865.197 38.402 865.635 38.076C866.073 37.739 866.483 37.222 866.866 36.525C867.026 36.241 867.187 35.922 867.347 35.568L867.236 35.986C867.135 36.3152 867.067 36.654 867.034 36.997C867.012 37.289 867.034 37.537 867.102 37.739C867.236 38.289 867.652 38.565 868.349 38.565C868.607 38.565 868.871 38.514 869.141 38.413C869.411 38.312 869.663 38.138 869.899 37.89C870.147 37.643 870.343 37.29 870.489 36.828L870.894 35.598H870.574L870.304 36.356C870.102 36.93 869.911 37.317 869.731 37.519C869.562 37.711 869.388 37.806 869.208 37.806C869.017 37.806 868.905 37.722 868.871 37.553ZM867.972 33.213C867.845 33.624 867.707 34.015 867.557 34.384C867.276 35.104 866.978 35.722 866.663 36.239C866.36 36.744 866.062 37.137 865.77 37.419C865.478 37.688 865.219 37.823 864.995 37.823C864.781 37.823 864.624 37.722 864.523 37.52C864.433 37.306 864.388 36.986 864.388 36.559C864.388 35.952 864.455 35.334 864.59 34.705C864.725 34.065 864.91 33.452 865.146 32.868C865.364 32.3199 865.635 31.7947 865.955 31.3C866.259 30.828 866.579 30.457 866.916 30.187C867.264 29.917 867.607 29.783 867.944 29.783C868.169 29.783 868.349 29.862 868.484 30.019C868.578 30.121 868.65 30.269 868.7 30.465L867.972 33.213Z" fill="#313131" fill-opacity="0.8"/>
<path d="M857.655 38.328H855.582L857.604 31.064C857.706 30.727 857.739 30.491 857.706 30.356C857.672 30.221 857.571 30.154 857.402 30.154C857.189 30.154 856.992 30.261 856.812 30.474C856.632 30.687 856.447 31.064 856.256 31.604L855.969 32.395H855.649L856.087 31.131C856.245 30.681 856.441 30.334 856.677 30.086C856.913 29.828 857.172 29.648 857.453 29.547C857.734 29.446 858.02 29.395 858.312 29.395C858.672 29.395 858.936 29.468 859.104 29.615C859.284 29.761 859.397 29.952 859.442 30.188C859.499 30.4424 859.51 30.7048 859.475 30.963C859.453 31.233 859.408 31.497 859.34 31.755L859.069 32.812L859.138 32.632C859.453 31.834 859.756 31.199 860.048 30.727C860.352 30.244 860.672 29.901 861.009 29.699C861.339 29.4983 861.719 29.3931 862.105 29.395C862.509 29.395 862.818 29.513 863.032 29.749C863.257 29.985 863.369 30.277 863.369 30.626C863.369 30.906 863.301 31.171 863.167 31.418C863.036 31.6498 862.851 31.8464 862.627 31.991C862.414 32.126 862.167 32.193 861.886 32.193C861.605 32.193 861.38 32.12 861.211 31.974C861.054 31.828 860.975 31.614 860.975 31.334C860.975 31.086 861.032 30.862 861.144 30.659C861.252 30.4614 861.402 30.2892 861.582 30.154C861.762 30.008 861.959 29.907 862.172 29.85C862.148 29.8269 862.12 29.8097 862.088 29.8C862.05 29.7881 862.01 29.7824 861.97 29.783C861.723 29.783 861.47 29.873 861.211 30.053C860.953 30.221 860.683 30.497 860.402 30.879C860.121 31.261 859.835 31.766 859.543 32.395C859.213 33.1388 858.921 33.8984 858.666 34.671C858.539 35.045 858.411 35.447 858.283 35.878L857.655 38.328Z" fill="#313131" fill-opacity="0.8"/>
<path fill-rule="evenodd" clip-rule="evenodd" d="M851.357 35.724L851.286 35.986C851.18 36.3666 851.106 36.7557 851.067 37.149C851.033 37.509 851.089 37.812 851.235 38.059C851.46 38.396 851.842 38.565 852.381 38.565C852.64 38.565 852.898 38.514 853.157 38.413C853.426 38.312 853.679 38.138 853.915 37.89C854.151 37.632 854.348 37.272 854.505 36.812L854.927 35.582H854.606L854.353 36.34C854.151 36.924 853.955 37.312 853.764 37.503C853.573 37.693 853.387 37.789 853.207 37.789C853.061 37.789 852.966 37.744 852.921 37.654C852.886 37.5395 852.874 37.419 852.887 37.3C852.909 37.1571 852.943 37.0162 852.988 36.879L855.163 29.395C854.825 29.4759 854.481 29.5323 854.134 29.564C853.786 29.598 853.41 29.62 853.005 29.631L852.761 30.533C852.751 30.3039 852.684 30.081 852.567 29.884C852.479 29.7303 852.351 29.6036 852.197 29.5174C852.042 29.4313 851.867 29.3889 851.69 29.395C851.196 29.395 850.702 29.547 850.207 29.85C849.681 30.1805 849.21 30.59 848.808 31.064C848.354 31.5808 847.959 32.1459 847.628 32.749C847.297 33.3537 847.031 33.9924 846.836 34.654C846.652 35.2492 846.556 35.868 846.55 36.491C846.55 37.121 846.696 37.626 846.988 38.008C847.28 38.379 847.729 38.564 848.336 38.564C848.763 38.564 849.173 38.441 849.567 38.194C849.971 37.946 850.353 37.536 850.713 36.964C850.936 36.619 851.15 36.206 851.357 35.724ZM849.904 37.435C849.645 37.671 849.415 37.789 849.213 37.789C849.044 37.789 848.915 37.705 848.825 37.536C848.746 37.356 848.707 37.059 848.707 36.643C848.707 36.047 848.774 35.435 848.909 34.806C849.044 34.176 849.224 33.57 849.449 32.986C849.685 32.401 849.943 31.879 850.224 31.418C850.505 30.958 850.786 30.592 851.067 30.322C851.359 30.052 851.634 29.918 851.893 29.918C852.162 29.918 852.353 30.053 852.466 30.322C852.578 30.566 852.607 30.893 852.553 31.302L852.055 33.144L852.112 32.851C851.932 33.57 851.718 34.233 851.471 34.84C851.256 35.3826 850.997 35.9067 850.696 36.407C850.426 36.845 850.162 37.188 849.904 37.435ZM844.284 36.896C844.205 37.166 844.183 37.385 844.217 37.553C844.25 37.722 844.363 37.806 844.554 37.806C844.734 37.806 844.908 37.711 845.076 37.52C845.256 37.317 845.447 36.93 845.649 36.356L845.919 35.598H846.239L845.835 36.828C845.689 37.289 845.492 37.643 845.245 37.89C845.035 38.1196 844.776 38.2985 844.486 38.413C844.234 38.5111 843.965 38.5626 843.694 38.565C842.998 38.565 842.582 38.289 842.447 37.739C842.376 37.4985 842.353 37.2463 842.38 36.997C842.402 36.705 842.469 36.367 842.582 35.986L842.693 35.568C842.532 35.922 842.371 36.241 842.211 36.525C841.829 37.222 841.419 37.739 840.981 38.075C840.554 38.3975 840.032 38.5698 839.497 38.565C839.138 38.565 838.812 38.485 838.52 38.329C838.219 38.1509 837.978 37.8864 837.829 37.57C837.66 37.222 837.576 36.778 837.576 36.239C837.576 35.722 837.66 35.159 837.829 34.553C837.997 33.935 838.239 33.323 838.553 32.716C838.864 32.1151 839.255 31.5593 839.716 31.064C840.177 30.558 840.688 30.154 841.25 29.85C841.827 29.5458 842.469 29.3895 843.121 29.395C843.458 29.395 843.722 29.485 843.913 29.665C844.023 29.762 844.106 29.885 844.16 30.035L844.941 27.086C845.043 26.704 845.026 26.423 844.891 26.243C844.756 26.063 844.413 25.973 843.863 25.973L843.981 25.62C844.643 25.6162 845.303 25.5539 845.953 25.434C846.512 25.3148 847.059 25.1458 847.588 24.929L844.284 36.896ZM842.902 34.384C843.052 34.014 843.191 33.624 843.317 33.213L844.046 30.465C844.011 30.3009 843.937 30.1478 843.829 30.019C843.763 29.9415 843.68 29.88 843.587 29.8391C843.493 29.7983 843.392 29.7791 843.29 29.783C842.953 29.783 842.61 29.918 842.262 30.187C841.924 30.457 841.604 30.828 841.301 31.3C840.98 31.7941 840.709 32.319 840.492 32.867C840.253 33.4619 840.067 34.077 839.936 34.705C839.803 35.314 839.735 35.9355 839.733 36.559C839.733 36.986 839.778 37.306 839.868 37.519C839.969 37.722 840.127 37.823 840.34 37.823C840.565 37.823 840.823 37.688 841.115 37.418C841.408 37.138 841.705 36.744 842.009 36.238C842.359 35.6467 842.658 35.0264 842.902 34.384Z" fill="#313131" fill-opacity="0.8"/>
<path d="M828.294 38.328H830.367L830.562 37.566L830.552 37.621C830.766 36.834 831.007 36.076 831.277 35.345C831.539 34.6474 831.831 33.9614 832.153 33.289C832.457 32.659 832.76 32.109 833.064 31.637C833.367 31.165 833.659 30.8 833.94 30.541C834.221 30.271 834.479 30.137 834.715 30.137C834.906 30.137 835.024 30.204 835.069 30.339C835.116 30.4922 835.121 30.6549 835.086 30.811C835.052 30.9937 835.007 31.174 834.951 31.351L833.418 35.986C833.26 36.458 833.17 36.862 833.148 37.199C833.125 37.536 833.187 37.812 833.333 38.025C833.446 38.194 833.603 38.323 833.805 38.413C834.019 38.513 834.272 38.565 834.564 38.565C834.833 38.565 835.103 38.514 835.373 38.413C835.654 38.323 835.912 38.154 836.148 37.907C836.395 37.66 836.598 37.3 836.755 36.828L837.176 35.598H836.856L836.586 36.356C836.373 36.941 836.171 37.328 835.98 37.519C835.8 37.711 835.626 37.806 835.457 37.806C835.277 37.806 835.165 37.733 835.12 37.586C835.075 37.43 835.103 37.199 835.204 36.896L836.856 31.94C837.002 31.502 837.075 31.092 837.075 30.71C837.086 30.317 836.98 30.002 836.755 29.766C836.541 29.519 836.159 29.396 835.609 29.396C835.193 29.396 834.794 29.486 834.412 29.665C834.03 29.845 833.659 30.159 833.3 30.609C832.94 31.047 832.569 31.643 832.187 32.395C831.933 32.9023 831.701 33.4197 831.49 33.946L832.052 31.755C832.12 31.485 832.17 31.215 832.204 30.946C832.238 30.666 832.226 30.412 832.17 30.187C832.116 29.9547 831.978 29.7505 831.783 29.614C831.592 29.468 831.311 29.395 830.94 29.395C830.49 29.395 830.08 29.519 829.709 29.766C829.339 30.013 829.035 30.468 828.799 31.131L828.361 32.395H828.681L828.968 31.603C829.17 31.053 829.355 30.676 829.524 30.474C829.704 30.261 829.9 30.154 830.114 30.154C830.271 30.154 830.367 30.199 830.401 30.289C830.445 30.379 830.457 30.491 830.434 30.626C830.409 30.7738 830.375 30.9201 830.333 31.064L828.294 38.328Z" fill="#313131" fill-opacity="0.8"/>
<path fill-rule="evenodd" clip-rule="evenodd" d="M823.998 35.986L824.069 35.724C823.889 36.1544 823.673 36.5692 823.425 36.964C823.065 37.536 822.683 37.947 822.278 38.194C821.885 38.441 821.475 38.564 821.048 38.564C820.441 38.564 819.992 38.379 819.7 38.008C819.407 37.626 819.261 37.121 819.261 36.491C819.261 35.907 819.357 35.295 819.548 34.654C819.743 33.9925 820.008 33.3538 820.34 32.749C820.67 32.1457 821.066 31.5806 821.52 31.064C821.921 30.5901 822.393 30.1806 822.919 29.85C823.413 29.547 823.908 29.395 824.402 29.395C824.784 29.395 825.076 29.558 825.279 29.885C825.387 30.052 825.452 30.268 825.473 30.533L825.717 29.631C826.121 29.62 826.498 29.598 826.846 29.564C827.206 29.53 827.548 29.474 827.874 29.395L825.7 36.88C825.654 37.0172 825.62 37.158 825.599 37.301C825.586 37.4201 825.598 37.5405 825.633 37.655C825.678 37.745 825.773 37.79 825.919 37.79C826.099 37.79 826.284 37.695 826.475 37.504C826.666 37.313 826.863 36.924 827.065 36.341L827.318 35.582H827.638L827.217 36.812C827.06 37.273 826.863 37.632 826.627 37.892C826.417 38.1211 826.158 38.2996 825.869 38.414C825.622 38.513 825.359 38.5645 825.093 38.566C824.554 38.566 824.172 38.397 823.947 38.06C823.801 37.813 823.745 37.51 823.779 37.15C823.818 36.7568 823.891 36.3666 823.998 35.986ZM821.924 37.789C822.127 37.789 822.357 37.671 822.616 37.435C822.874 37.188 823.138 36.845 823.408 36.407C823.677 35.969 823.936 35.447 824.183 34.84C824.43 34.233 824.644 33.57 824.824 32.85L824.767 33.144L825.265 31.303C825.318 30.893 825.289 30.566 825.178 30.323C825.065 30.053 824.874 29.918 824.604 29.918C824.346 29.918 824.071 30.053 823.779 30.322C823.498 30.592 823.217 30.957 822.936 31.418C822.655 31.878 822.396 32.401 822.16 32.985C821.933 33.5769 821.753 34.1853 821.621 34.805C821.489 35.4088 821.421 36.0249 821.419 36.643C821.419 37.059 821.458 37.357 821.537 37.536C821.627 37.705 821.756 37.789 821.924 37.789Z" fill="#313131" fill-opacity="0.8"/>
<path d="M820.43 29.9681L820.481 29.6311H818.473L819.267 26.8671C818.934 26.9489 818.596 27.0054 818.256 27.0361C817.908 27.0691 817.531 27.0921 817.127 27.1031L816.402 29.6311H814.868L814.784 29.9681H816.306L814.581 35.9861C814.435 36.4801 814.385 36.9241 814.43 37.3171C814.486 37.6991 814.643 38.0031 814.902 38.2271C815.171 38.4521 815.559 38.5651 816.065 38.5651C816.638 38.5651 817.132 38.4131 817.548 38.1091C817.964 37.8061 818.29 37.3061 818.526 36.6091L818.863 35.5981H818.542L818.29 36.2891C818.087 36.8511 817.863 37.2441 817.615 37.4691C817.379 37.6941 817.143 37.8061 816.907 37.8061C816.814 37.8091 816.722 37.7909 816.637 37.7528C816.552 37.7146 816.478 37.6576 816.419 37.5861C816.306 37.4411 816.295 37.2111 816.385 36.8961L818.376 29.9681H820.43ZM814.848 26.2771C814.736 26.5691 814.584 26.9971 814.393 27.5581C814.213 28.1081 814.034 28.8281 813.854 29.7151H813.517C813.55 29.5581 813.573 29.3951 813.584 29.2271C813.605 29.0763 813.616 28.9243 813.618 28.7721C813.618 28.3331 813.528 27.9521 813.348 27.6261C813.175 27.2842 812.897 27.0064 812.556 26.8331C812.208 26.6311 811.758 26.5301 811.208 26.5301C810.612 26.5301 810.106 26.6871 809.691 27.0021C809.275 27.3051 809.067 27.7941 809.067 28.4681C809.067 28.8841 809.162 29.2781 809.353 29.6481C809.556 30.0081 809.809 30.3621 810.112 30.7101C810.427 31.0471 810.758 31.3901 811.106 31.7381C811.455 32.0751 811.781 32.4241 812.084 32.7831C812.387 33.1431 812.635 33.5251 812.826 33.9291C813.028 34.3231 813.129 34.7551 813.129 35.2271C813.129 35.8231 812.983 36.3341 812.691 36.7611C812.406 37.1805 812.031 37.5316 811.595 37.7891C811.137 38.0509 810.643 38.244 810.129 38.3621C809.634 38.4942 809.124 38.5625 808.612 38.5651C808.106 38.5651 807.685 38.5251 807.348 38.4471C807.059 38.3928 806.781 38.2961 806.522 38.1601C806.301 38.0391 806.082 37.9157 805.864 37.7901C805.764 37.7068 805.65 37.6436 805.527 37.6041C805.448 37.5646 805.362 37.5415 805.275 37.5361C805.128 37.5361 805.005 37.6091 804.904 37.7561C804.771 37.9756 804.658 38.2065 804.567 38.4461H804.229C804.507 37.7606 804.738 37.057 804.921 36.3401C805.055 35.8231 805.207 35.1771 805.376 34.4011H805.713C805.665 34.6243 805.626 34.8491 805.595 35.0751C805.561 35.3001 805.55 35.5251 805.561 35.7501C805.595 36.5361 805.836 37.1431 806.286 37.5701C806.747 37.9971 807.421 38.2101 808.308 38.2101C809.061 38.2101 809.629 38.0531 810.011 37.7391C810.393 37.4131 810.584 36.9411 810.584 36.3231C810.584 35.8511 810.494 35.4231 810.314 35.0421C810.144 34.6457 809.917 34.2765 809.64 33.9461C809.354 33.6041 809.056 33.2726 808.747 32.9521C808.436 32.6315 808.138 32.2996 807.853 31.9571C807.577 31.6167 807.344 31.2431 807.162 30.8451C806.978 30.4195 806.886 29.9597 806.893 29.4961C806.893 28.9351 807.011 28.4461 807.247 28.0301C807.484 27.6243 807.806 27.2738 808.19 27.0021C808.583 26.721 809.022 26.51 809.488 26.3781C809.94 26.2351 810.412 26.1613 810.887 26.1591C811.494 26.1591 811.994 26.2321 812.387 26.3791C812.781 26.5241 813.118 26.6991 813.399 26.9011L813.719 27.1031C813.82 27.1481 813.899 27.1701 813.955 27.1701C814.112 27.1701 814.298 26.8731 814.511 26.2771H814.848Z" fill="#313131" fill-opacity="0.8"/>
<path fill-rule="evenodd" clip-rule="evenodd" d="M798.578 37.553C798.544 37.385 798.567 37.166 798.646 36.896L801.949 24.929C801.42 25.1458 800.873 25.3148 800.314 25.434C799.741 25.547 799.084 25.608 798.342 25.62L798.224 25.974C798.774 25.974 799.118 26.064 799.252 26.244C799.387 26.424 799.404 26.704 799.303 27.086L798.521 30.035C798.471 29.8927 798.387 29.7653 798.275 29.665C798.084 29.485 797.82 29.395 797.483 29.395C796.808 29.395 796.185 29.547 795.612 29.85C795.035 30.1648 794.516 30.5754 794.078 31.064C793.616 31.5591 793.225 32.1149 792.915 32.716C792.608 33.3009 792.365 33.9166 792.19 34.553C792.029 35.101 791.944 35.6681 791.937 36.239C791.937 36.778 792.022 37.222 792.19 37.57C792.359 37.907 792.589 38.16 792.881 38.328C793.173 38.486 793.499 38.564 793.859 38.564C794.409 38.564 794.904 38.402 795.342 38.076C795.78 37.739 796.19 37.222 796.572 36.525C796.732 36.241 796.893 35.922 797.054 35.568L796.944 35.986C796.841 36.3151 796.773 36.6539 796.741 36.997C796.714 37.2463 796.736 37.4985 796.808 37.739C796.943 38.289 797.358 38.565 798.056 38.565C798.314 38.565 798.578 38.514 798.848 38.413C799.118 38.312 799.37 38.138 799.606 37.89C799.854 37.643 800.05 37.29 800.196 36.828L800.601 35.598H800.281L800.011 36.356C799.809 36.93 799.618 37.317 799.438 37.519C799.269 37.711 799.095 37.806 798.915 37.806C798.725 37.806 798.612 37.722 798.578 37.553ZM797.678 33.213C797.552 33.624 797.414 34.015 797.263 34.384C796.983 35.104 796.685 35.722 796.37 36.239C796.067 36.744 795.769 37.137 795.477 37.419C795.185 37.688 794.927 37.823 794.701 37.823C794.488 37.823 794.331 37.722 794.23 37.52C794.14 37.306 794.095 36.986 794.095 36.559C794.095 35.952 794.162 35.334 794.297 34.705C794.432 34.065 794.617 33.452 794.853 32.868C795.07 32.3198 795.341 31.7945 795.663 31.3C795.966 30.828 796.286 30.457 796.623 30.187C796.971 29.917 797.314 29.783 797.651 29.783C797.876 29.783 798.056 29.862 798.191 30.019C798.285 30.121 798.357 30.269 798.407 30.465L797.678 33.213Z" fill="#313131" fill-opacity="0.8"/>
<path d="M784.728 38.328H782.655L784.695 31.064C784.74 30.907 784.773 30.761 784.795 30.626C784.82 30.513 784.809 30.395 784.762 30.289C784.728 30.199 784.632 30.154 784.475 30.154C784.262 30.154 784.065 30.261 783.885 30.474C783.717 30.676 783.531 31.053 783.329 31.604L783.043 32.395H782.723L783.161 31.131C783.397 30.468 783.701 30.013 784.071 29.766C784.441 29.519 784.851 29.396 785.301 29.396C785.672 29.396 785.953 29.468 786.144 29.614C786.34 29.7503 786.478 29.9545 786.532 30.187C786.588 30.412 786.599 30.665 786.566 30.946C786.532 31.2185 786.481 31.4886 786.414 31.755L785.852 33.947C786.09 33.358 786.322 32.842 786.549 32.395C786.931 31.643 787.301 31.047 787.661 30.609C788.021 30.159 788.391 29.845 788.773 29.665C789.156 29.485 789.554 29.395 789.97 29.395C790.52 29.395 790.903 29.519 791.116 29.766C791.341 30.002 791.448 30.316 791.436 30.71C791.436 31.092 791.364 31.502 791.217 31.94L789.566 36.896C789.464 37.199 789.436 37.43 789.481 37.586C789.526 37.733 789.639 37.806 789.819 37.806C789.987 37.806 790.161 37.711 790.341 37.52C790.532 37.328 790.734 36.94 790.948 36.356L791.218 35.598H791.538L791.116 36.828C790.959 37.3 790.756 37.66 790.51 37.908C790.298 38.1393 790.031 38.313 789.734 38.413C789.476 38.5121 789.202 38.5636 788.925 38.565C788.633 38.565 788.38 38.514 788.167 38.413C787.964 38.323 787.807 38.193 787.695 38.025C787.549 37.812 787.487 37.536 787.509 37.199C787.532 36.862 787.622 36.458 787.779 35.986L789.313 31.351C789.369 31.171 789.414 30.991 789.448 30.811C789.484 30.6549 789.478 30.4922 789.431 30.339C789.386 30.204 789.268 30.137 789.077 30.137C788.841 30.137 788.582 30.272 788.302 30.541C788.021 30.8 787.728 31.165 787.425 31.637C787.089 32.1688 786.785 32.7205 786.515 33.289C786.212 33.919 785.919 34.603 785.638 35.345C785.368 36.075 785.128 36.834 784.914 37.621L784.924 37.566L784.728 38.328Z" fill="#313131" fill-opacity="0.8"/>
<path fill-rule="evenodd" clip-rule="evenodd" d="M778.43 35.7239L778.36 35.9859C778.254 36.3667 778.18 36.7557 778.14 37.1489C778.106 37.5089 778.162 37.8119 778.308 38.0589C778.533 38.3959 778.915 38.5649 779.455 38.5649C779.743 38.5629 780.028 38.5019 780.292 38.3859C780.556 38.2698 780.793 38.101 780.989 37.8899C781.225 37.6319 781.421 37.2719 781.579 36.8119L781.999 35.5819H781.679L781.427 36.3399C781.224 36.9239 781.027 37.3119 780.837 37.5029C780.646 37.6929 780.46 37.7889 780.281 37.7889C780.134 37.7889 780.039 37.7439 779.994 37.6539C779.959 37.5395 779.947 37.419 779.96 37.2999C779.983 37.1539 780.016 37.0139 780.062 36.8789L782.236 29.3949C781.898 29.4758 781.554 29.5323 781.208 29.5639C780.859 29.5979 780.483 29.6199 780.078 29.6309L779.834 30.5329C779.824 30.304 779.757 30.0811 779.64 29.8839C779.552 29.7305 779.424 29.6039 779.27 29.5177C779.116 29.4315 778.941 29.3891 778.764 29.3949C778.269 29.3949 777.774 29.5469 777.28 29.8499C776.786 30.1539 776.32 30.5579 775.881 31.0639C775.427 31.5806 775.031 32.1457 774.701 32.7489C774.37 33.3537 774.104 33.9924 773.909 34.6539C773.725 35.2492 773.629 35.868 773.623 36.4909C773.623 37.1209 773.769 37.6259 774.061 38.0079C774.353 38.3789 774.803 38.5639 775.409 38.5639C775.836 38.5639 776.247 38.4409 776.639 38.1939C777.044 37.9459 777.427 37.5359 777.786 36.9639C778.009 36.6189 778.223 36.2059 778.43 35.7239ZM776.977 37.4349C776.719 37.6709 776.488 37.7889 776.286 37.7889C776.117 37.7889 775.988 37.7049 775.898 37.5359C775.82 37.3559 775.78 37.0589 775.78 36.6429C775.78 36.0469 775.848 35.4349 775.983 34.8059C776.117 34.1759 776.297 33.5699 776.522 32.9859C776.758 32.4009 777.016 31.8789 777.297 31.4179C777.578 30.9579 777.859 30.5919 778.14 30.3219C778.432 30.0519 778.707 29.9179 778.966 29.9179C779.236 29.9179 779.426 30.0529 779.539 30.3219C779.651 30.5659 779.679 30.8929 779.626 31.3019L779.128 33.1439L779.185 32.8509C779.005 33.5699 778.792 34.2329 778.545 34.8399C778.297 35.4459 778.039 35.9689 777.769 36.4069C777.499 36.8449 777.235 37.1879 776.977 37.4349Z" fill="#313131" fill-opacity="0.8"/>
<path d="M769.115 38.328H767.042L769.064 31.064C769.165 30.727 769.199 30.491 769.165 30.356C769.132 30.221 769.031 30.154 768.862 30.154C768.649 30.154 768.452 30.261 768.272 30.474C768.092 30.687 767.907 31.064 767.716 31.604L767.429 32.395H767.109L767.547 31.131C767.705 30.681 767.901 30.334 768.137 30.086C768.373 29.828 768.632 29.648 768.913 29.547C769.193 29.446 769.48 29.395 769.773 29.395C770.132 29.395 770.396 29.468 770.564 29.615C770.743 29.7585 770.863 29.9622 770.902 30.188C770.958 30.424 770.969 30.682 770.935 30.963C770.913 31.233 770.868 31.497 770.8 31.755L770.53 32.812L770.557 32.739L770.598 32.632C770.913 31.834 771.216 31.199 771.508 30.727C771.812 30.244 772.132 29.901 772.469 29.699C772.799 29.4983 773.179 29.3931 773.565 29.395C773.969 29.395 774.278 29.513 774.492 29.749C774.716 29.985 774.829 30.277 774.829 30.626C774.829 30.906 774.761 31.171 774.626 31.418C774.495 31.6498 774.31 31.8464 774.087 31.991C773.864 32.1284 773.607 32.1985 773.345 32.193C773.065 32.193 772.84 32.12 772.671 31.974C772.514 31.828 772.435 31.614 772.435 31.334C772.435 31.086 772.491 30.862 772.604 30.659C772.716 30.457 772.862 30.289 773.042 30.154C773.222 30.008 773.418 29.907 773.632 29.85C773.608 29.827 773.58 29.8099 773.548 29.8C773.526 29.7925 773.502 29.7874 773.479 29.785C773.462 29.7835 773.446 29.7828 773.429 29.783C773.183 29.783 772.929 29.873 772.671 30.053C772.413 30.221 772.143 30.497 771.862 30.879C771.582 31.261 771.295 31.766 771.002 32.395C770.673 33.1388 770.38 33.8984 770.126 34.671C769.999 35.044 769.871 35.447 769.743 35.878L769.115 38.328Z" fill="#313131" fill-opacity="0.8"/>
<path fill-rule="evenodd" clip-rule="evenodd" d="M765.962 27.019C765.4 26.614 764.501 26.412 763.265 26.412C762.883 26.412 762.501 26.418 762.118 26.429C761.748 26.44 761.321 26.446 760.838 26.446H759.995C759.691 26.434 759.405 26.429 759.135 26.429C758.91 26.4191 758.685 26.4078 758.461 26.395L758.377 26.732C758.815 26.732 759.113 26.788 759.27 26.901C759.439 27.001 759.517 27.159 759.506 27.373C759.483 27.6459 759.438 27.9165 759.371 28.182L757.146 36.542C757.046 36.946 756.933 37.25 756.809 37.452C756.697 37.6452 756.517 37.7897 756.304 37.857C756.09 37.924 755.792 37.969 755.41 37.991L755.343 38.328C755.533 38.318 755.764 38.312 756.033 38.312C756.303 38.3 756.59 38.295 756.893 38.295C757.741 38.2692 758.59 38.2749 759.438 38.312C759.899 38.322 760.321 38.329 760.703 38.329C761.433 38.329 762.124 38.255 762.776 38.109C763.377 37.9727 763.952 37.7397 764.478 37.419C764.949 37.1386 765.347 36.7515 765.641 36.289C765.933 35.839 766.079 35.312 766.079 34.705C766.079 34.019 765.799 33.429 765.237 32.935C764.687 32.44 763.815 32.148 762.624 32.058C763.367 31.9513 764.089 31.7297 764.764 31.401C765.394 31.075 765.888 30.676 766.248 30.204C766.61 29.7559 766.807 29.1963 766.804 28.62C766.804 27.946 766.525 27.412 765.962 27.019ZM760.582 32.278L759.455 36.542C759.388 36.822 759.343 37.07 759.321 37.283C759.309 37.497 759.365 37.66 759.489 37.773C759.613 37.885 759.843 37.941 760.18 37.941C760.978 37.941 761.63 37.789 762.135 37.486C762.63 37.195 763.024 36.76 763.265 36.239C763.512 35.699 763.635 35.092 763.635 34.419C763.635 34.002 763.562 33.637 763.416 33.323C763.287 33.004 763.056 32.737 762.759 32.564C762.456 32.373 762.051 32.278 761.545 32.278H760.582ZM760.658 31.991H761.428C762.068 31.991 762.613 31.828 763.062 31.502C763.523 31.165 763.872 30.727 764.108 30.188C764.354 29.654 764.48 29.0728 764.478 28.485C764.478 27.923 764.366 27.491 764.141 27.187C763.928 26.884 763.551 26.732 763.011 26.732C762.619 26.732 762.338 26.811 762.169 26.968C762.001 27.114 761.855 27.434 761.731 27.928L760.658 31.991Z" fill="#313131" fill-opacity="0.8"/>
</g>
<g clip-path="url(#clip4_724_8132)">
<path fill-rule="evenodd" clip-rule="evenodd" d="M958 28C956.674 28 955.402 27.4732 954.464 26.5355C953.527 25.5979 953 24.3261 953 23V0H943V23C943 31.284 949.716 38 958 38H969V28H958ZM988 10C986.818 10 985.648 10.2328 984.556 10.6851C983.464 11.1374 982.472 11.8003 981.636 12.636C980.8 13.4718 980.137 14.4639 979.685 15.5558C979.233 16.6478 979 17.8181 979 19C979 20.1819 979.233 21.3522 979.685 22.4442C980.137 23.5361 980.8 24.5282 981.636 25.364C982.472 26.1997 983.464 26.8626 984.556 27.3149C985.648 27.7672 986.818 28 988 28C990.387 28 992.676 27.0518 994.364 25.364C996.052 23.6761 997 21.3869 997 19C997 16.6131 996.052 14.3239 994.364 12.636C992.676 10.9482 990.387 10 988 10ZM969 19C969 8.507 977.507 0 988 0C998.493 0 1007 8.507 1007 19C1007 29.493 998.493 38 988 38C977.507 38 969 29.493 969 19ZM1096 10C1093.61 10 1091.32 10.9482 1089.64 12.636C1087.95 14.3239 1087 16.6131 1087 19C1087 21.3869 1087.95 23.6761 1089.64 25.364C1091.32 27.0518 1093.61 28 1096 28C1098.39 28 1100.68 27.0518 1102.36 25.364C1104.05 23.6761 1105 21.3869 1105 19C1105 16.6131 1104.05 14.3239 1102.36 12.636C1100.68 10.9482 1098.39 10 1096 10ZM1077 19C1077 8.507 1085.51 0 1096 0C1106.49 0 1115 8.507 1115 19C1115 29.493 1106.49 38 1096 38C1085.51 38 1077 29.493 1077 19ZM1028 0C1017.51 0 1009 8.507 1009 19C1009 29.493 1017.51 38 1028 38H1056C1057.97 38 1059.87 37.7 1061.65 37.144L1067 40L1072.77 29.196C1074.23 26.4457 1075 23.3773 1075 20.261V19C1075 8.507 1066.49 0 1056 0H1028ZM1065 19C1065 16.6131 1064.05 14.3239 1062.36 12.636C1060.68 10.9482 1058.39 10 1056 10H1028C1026.82 10 1025.65 10.2328 1024.56 10.6851C1023.46 11.1374 1022.47 11.8003 1021.64 12.636C1020.8 13.4718 1020.14 14.4639 1019.69 15.5558C1019.23 16.6478 1019 17.8181 1019 19C1019 20.1819 1019.23 21.3522 1019.69 22.4442C1020.14 23.5361 1020.8 24.5282 1021.64 25.364C1022.47 26.1997 1023.46 26.8626 1024.56 27.3149C1025.65 27.7672 1026.82 28 1028 28H1056C1058.37 28.0001 1060.65 27.0615 1062.34 25.3888C1064.03 23.716 1064.98 21.4448 1065 19.07V19Z" fill="#313131" fill-opacity="0.8"/>
<path d="M1119 2.5C1119 3.16304 1118.74 3.79893 1118.27 4.26777C1117.8 4.73661 1117.16 5 1116.5 5C1115.84 5 1115.2 4.73661 1114.73 4.26777C1114.26 3.79893 1114 3.16304 1114 2.5C1114 1.83696 1114.26 1.20107 1114.73 0.732233C1115.2 0.263392 1115.84 0 1116.5 0C1117.16 0 1117.8 0.263392 1118.27 0.732233C1118.74 1.20107 1119 1.83696 1119 2.5Z" fill="#313131" fill-opacity="0.8"/>
</g>
<defs>
<clipPath id="clip0_724_8132">
<rect width="100" height="40" fill="white"/>
</clipPath>
<clipPath id="clip1_724_8132">
<rect width="169" height="40" fill="white" transform="translate(170)"/>
</clipPath>
<clipPath id="clip2_724_8132">
<rect width="220" height="40" fill="white" transform="translate(409)"/>
</clipPath>
<clipPath id="clip3_724_8132">
<rect width="174" height="39" fill="white" transform="translate(699)"/>
</clipPath>
<clipPath id="clip4_724_8132">
<rect width="176" height="40" fill="white" transform="translate(943)"/>
</clipPath>
</defs>
</svg>
